<svg width="0" height="0" class="hidden">
  <symbol fill="#ffffff" version="1.1" id="fax" xmlns="http://www.w3.org/2000/svg" xmlns:xlink="http://www.w3.org/1999/xlink" xml:space="preserve" viewBox="0 0 295.238 295.238">
    <g>
      <g>
        <g>
          <path d="M276.305,47.619h-33.448V19.048h-14.286V0H66.667v19.048H52.381v28.571H18.933C8.49,47.619,0,56.114,0,66.552v152.61
				c0,10.438,8.49,18.933,18.933,18.933h47.733v57.143h161.905v-57.143h47.733c10.443,0,18.933-8.495,18.933-18.933V66.552
				C295.239,56.114,286.748,47.619,276.305,47.619z M228.571,28.571h4.762v19.048h-4.762V28.571z M76.19,9.524h142.857v80.952H76.19
				V9.524z M61.906,28.571h4.762v19.048h-4.762V28.571z M76.19,285.714v-80.952h142.857v80.952H76.19z M66.667,195.238v14.286
				h-4.762v-19.048h171.429v19.048h-4.762v-14.286H66.667z M285.715,219.162L285.715,219.162c0,5.19-4.224,9.41-9.41,9.41h-47.733
				v-9.524h14.286v-38.095H52.381v38.095h14.286v9.524H18.933c-5.186,0-9.41-4.219-9.41-9.41V66.552c0-5.19,4.224-9.41,9.41-9.41
				h47.733V100h161.905V57.143h47.733c5.186,0,9.41,4.219,9.41,9.41V219.162z"></path>
          <path d="M266.667,71.429c-7.876,0-14.286,6.41-14.286,14.286c0,7.876,6.409,14.285,14.286,14.285
				c7.877,0,14.286-6.41,14.286-14.286S274.544,71.429,266.667,71.429z M266.667,90.476c-2.629,0-4.762-2.138-4.762-4.762
				s2.133-4.762,4.762-4.762c2.629,0,4.762,2.138,4.762,4.762S269.296,90.476,266.667,90.476z"></path>
          <rect x="85.714" y="266.667" width="123.81" height="9.524"></rect>
          <rect x="85.714" y="247.619" width="123.81" height="9.524"></rect>
          <rect x="85.714" y="228.571" width="9.524" height="9.524"></rect>
          <rect x="104.763" y="228.571" width="9.524" height="9.524"></rect>
          <rect x="123.81" y="228.571" width="9.524" height="9.524"></rect>
          <rect x="57.143" y="109.524" width="180.952" height="9.524"></rect>
        </g>
      </g>
    </g>
  </symbol>
  <symbol fill="none" xmlns="http://www.w3.org/2000/svg" viewBox="0 0 24 24" id="mail">
    <path d="M4 19L9 14M20 19L15 14M3.02832 10L10.2246 14.8166C10.8661 15.2443 11.1869 15.4581 11.5336 15.5412C11.8399 15.6146 12.1593 15.6146 12.4657 15.5412C12.8124 15.4581 13.1332 15.2443 13.7747 14.8166L20.971 10M10.2981 4.06879L4.49814 7.71127C3.95121 8.05474 3.67775 8.22648 3.4794 8.45864C3.30385 8.66412 3.17176 8.90305 3.09111 9.161C3 9.45244 3 9.77535 3 10.4212V16.8C3 17.9201 3 18.4802 3.21799 18.908C3.40973 19.2843 3.71569 19.5903 4.09202 19.782C4.51984 20 5.0799 20 6.2 20H17.8C18.9201 20 19.4802 20 19.908 19.782C20.2843 19.5903 20.5903 19.2843 20.782 18.908C21 18.4802 21 17.9201 21 16.8V10.4212C21 9.77535 21 9.45244 20.9089 9.161C20.8282 8.90305 20.6962 8.66412 20.5206 8.45864C20.3223 8.22648 20.0488 8.05474 19.5019 7.71127L13.7019 4.06879C13.0846 3.68116 12.776 3.48735 12.4449 3.4118C12.152 3.34499 11.848 3.34499 11.5551 3.4118C11.224 3.48735 10.9154 3.68116 10.2981 4.06879Z" stroke="#ffffff" stroke-width="2" stroke-linecap="round" stroke-linejoin="round"></path>
  </symbol>
  <symbol fill="none" xmlns="http://www.w3.org/2000/svg" viewBox="0 0 15 15" id="password">
    <path d="M12.5 8.5V7.5C12.5 6.94772 12.0523 6.5 11.5 6.5H1.5C0.947715 6.5 0.5 6.94772 0.5 7.5V13.5C0.5 14.0523 0.947715 14.5 1.5 14.5H11.5C12.0523 14.5 12.5 14.0523 12.5 13.5V12.5M12.5 8.5H8.5C7.39543 8.5 6.5 9.39543 6.5 10.5C6.5 11.6046 7.39543 12.5 8.5 12.5H12.5M12.5 8.5C13.6046 8.5 14.5 9.39543 14.5 10.5C14.5 11.6046 13.6046 12.5 12.5 12.5M3.5 6.5V3.5C3.5 1.84315 4.84315 0.5 6.5 0.5C8.15685 0.5 9.5 1.84315 9.5 3.5V6.5M12 10.5H13M10 10.5H11M8 10.5H9" stroke="#ffffff"></path>
  </symbol>
  <symbol fill="none" xmlns="http://www.w3.org/2000/svg" viewBox="0 0 24 24" id="phone">
    <path d="M3 5.5C3 14.0604 9.93959 21 18.5 21C18.8862 21 19.2691 20.9859 19.6483 20.9581C20.0834 20.9262 20.3009 20.9103 20.499 20.7963C20.663 20.7019 20.8185 20.5345 20.9007 20.364C21 20.1582 21 19.9181 21 19.438V16.6207C21 16.2169 21 16.015 20.9335 15.842C20.8749 15.6891 20.7795 15.553 20.6559 15.4456C20.516 15.324 20.3262 15.255 19.9468 15.117L16.74 13.9509C16.2985 13.7904 16.0777 13.7101 15.8683 13.7237C15.6836 13.7357 15.5059 13.7988 15.3549 13.9058C15.1837 14.0271 15.0629 14.2285 14.8212 14.6314L14 16C11.3501 14.7999 9.2019 12.6489 8 10L9.36863 9.17882C9.77145 8.93713 9.97286 8.81628 10.0942 8.64506C10.2012 8.49408 10.2643 8.31637 10.2763 8.1317C10.2899 7.92227 10.2096 7.70153 10.0491 7.26005L8.88299 4.05321C8.745 3.67376 8.67601 3.48403 8.55442 3.3441C8.44701 3.22049 8.31089 3.12515 8.15802 3.06645C7.98496 3 7.78308 3 7.37932 3H4.56201C4.08188 3 3.84181 3 3.63598 3.09925C3.4655 3.18146 3.29814 3.33701 3.2037 3.50103C3.08968 3.69907 3.07375 3.91662 3.04189 4.35173C3.01413 4.73086 3 5.11378 3 5.5Z" stroke="#ffffff" stroke-width="2" stroke-linecap="round" stroke-linejoin="round"></path>
  </symbol>
  <symbol xmlns="http://www.w3.org/2000/svg" stroke-width="3" stroke="#ffffff" fill="none" viewBox="0 0 64 64" id="edit">
    <polyline points="45.56 46.83 45.56 56.26 7.94 56.26 7.94 20.6 19.9 7.74 45.56 7.74 45.56 21.29"></polyline>
    <polyline points="19.92 7.74 19.9 20.6 7.94 20.6"></polyline>
    <line x1="13.09" y1="47.67" x2="31.1" y2="47.67"></line>
    <line x1="13.09" y1="41.14" x2="29.1" y2="41.14"></line>
    <line x1="13.09" y1="35.04" x2="33.1" y2="35.04"></line>
    <line x1="13.09" y1="28.94" x2="39.1" y2="28.94"></line>
    <path d="M34.45,43.23l.15,4.3a.49.49,0,0,0,.62.46l4.13-1.11a.54.54,0,0,0,.34-.23L57.76,22.21a1.23,1.23,0,0,0-.26-1.72l-3.14-2.34a1.22,1.22,0,0,0-1.72.26L34.57,42.84A.67.67,0,0,0,34.45,43.23Z"></path>
    <line x1="50.2" y1="21.7" x2="55.27" y2="25.57"></line>
  </symbol>
</svg>